<?xml version="1.0" encoding="utf-8"?>
<!-- Generator: Adobe Illustrator 21.0.2, SVG Export Plug-In . SVG Version: 6.00 Build 0)  -->
<svg version="1.1" id="Layer_1" xmlns="http://www.w3.org/2000/svg" xmlns:xlink="http://www.w3.org/1999/xlink" x="0px" y="0px"
	 viewBox="0 0 50 50" style="enable-background:new 0 0 50 50;" xml:space="preserve">
<style type="text/css">
	.st0{fill:none;stroke:#FFFFFF;stroke-miterlimit:10;}
	.st1{fill:none;stroke:#FFFFFF;stroke-width:0.25;stroke-miterlimit:10;}
</style>
<g>
	<path class="st0" d="M13.4,22.5l1.2-2.1l3.9-3c0,0,7.7-0.4,8.5-0.8c0.9-0.4,4.1,1,9.9,1.8l9.9,7.8l-0.7,6.2c0,0-12.2-0.4-14.7,0.6
		c0,0-1.2,0.2-3.5,0.3c-2.3,0.1-4.1,0.3-4.1,0.3s-1.1-0.6-1.6-0.8s-1.9,0-1.9,0s-1.1-0.3-0.6-1.6c0.5-1.3,3.1-1.5,3.1-1.5
		s4.5,0.2,5-1.7c0,0-0.4-0.5-0.2-2.8c0,0,0.8-0.9-4-0.6l-4.2,1.3l-2.9,1.5c0,0-2,1.6-3,0.9s-0.3-1.4-0.3-1.4s4-3.4,4-4l3.9-2.1
		l-2.2-0.1c0,0-1.9,1.1-2.6,0.9c0,0-1,1.7-1.3,1.7S14.2,23.7,13.4,22.5z"/>
	<path class="st0" d="M2.2,28.7c0,0,2.6-1.1,4.8-0.8c2,0.3,3.8-1.1,5.1-1.3c0,0,0.1-1.8,2.2-3.1l2.7-1.1l0.8,0.1
		c0,0-3.7,3.6-4.6,4.5c-0.9,0.9,1,1.3,1,1.3s1.6-0.2,2.7-1.2c1.1-1.1,7.2-2.6,7.2-2.6s3.4-0.1,3.5,0.3c0.1,0.4-0.1,3.2,0.3,3.2
		c0.2,0-0.1,0.6-1.2,1.1c-0.8,0.3-2,0.6-3.7,0.6c-1.1,0.2-9.3,1.2-7.8,0.6c0.9-0.3-3-0.4-3.2-3.1c0,0-4,1.7-5,1.4
		C5.7,28.2,2.2,28.7,2.2,28.7z"/>
	<path class="st1" d="M13.7,26.1l0.8-0.3l1.6-1.6c0,0-1.1,0-1.8,0.7C13.5,25.6,13.7,26.1,13.7,26.1z"/>
</g>
</svg>
