<?xml version="1.0" encoding="utf-8"?>
<!-- Generator: Adobe Illustrator 19.1.0, SVG Export Plug-In . SVG Version: 6.00 Build 0)  -->
<svg version="1.1" id="Layer_1" xmlns="http://www.w3.org/2000/svg" xmlns:xlink="http://www.w3.org/1999/xlink" x="0px" y="0px"
	 viewBox="-320 278.3 200 40" style="enable-background:new -320 278.3 200 40;" xml:space="preserve">
<style type="text/css">
	.st0{fill:#36465D;}
	.st1{fill:#464C50;}
	.st2{fill:none;stroke:#464C50;stroke-width:2;stroke-miterlimit:10;}
</style>
<g>
	<rect x="-311" y="292.3" class="st0" width="22" height="2"/>
</g>
<path class="st1" d="M-287,287.3v22h-26v-22H-287 M-285,285.3h-30v26h30V285.3L-285,285.3z"/>
<path class="st0" d="M-263,295.3l-3,8l8-3.1l3.1-8L-263,295.3z"/>
<g>
	<g>
		<path class="st1" d="M-207,286.3v17h-20h-0.7l-0.5,0.4l-5.8,4.5v-2.9v-19H-207 M-205,284.3h-31v21v7l9-7h22V284.3L-205,284.3z"/>
	</g>
</g>
<g>
	<rect x="-227" y="293.3" class="st0" width="13" height="2"/>
</g>
<path class="st1" d="M-167,288.3v21h-26v-21H-167 M-165,286.3h-30v25h30V286.3L-165,286.3z"/>
<rect x="-189" y="283.3" class="st1" width="3" height="4.9"/>
<rect x="-174" y="283.3" class="st1" width="3" height="4.9"/>
<g>
	<rect x="-146.9" y="299.3" class="st0" width="2" height="6"/>
</g>
<g>
	<rect x="-141" y="296.3" class="st0" width="2" height="9"/>
</g>
<g>
	<rect x="-134.9" y="293.3" class="st0" width="2" height="12"/>
</g>
<path class="st1" d="M-127.9,287.3v22h-24v-22H-127.9 M-125.9,285.3h-28v26h28V285.3L-125.9,285.3z"/>
<circle class="st2" cx="-260.5" cy="297.8" r="13.5"/>
<polygon class="st0" points="-172.8,294.4 -174.2,293 -182,300.8 -185.8,297 -187.2,298.4 -182,303.6 -182,303.6 -182,303.6 "/>
</svg>
