<?xml version="1.0" encoding="utf-8"?>
<!-- Generator: Adobe Illustrator 21.0.2, SVG Export Plug-In . SVG Version: 6.00 Build 0)  -->
<svg version="1.1" id="Layer_1" xmlns="http://www.w3.org/2000/svg" xmlns:xlink="http://www.w3.org/1999/xlink" x="0px" y="0px"
	 viewBox="0 0 14.5 13.8" style="enable-background:new 0 0 14.5 13.8;" xml:space="preserve">
<style type="text/css">
	.st0{fill:#39465D;stroke:#39465D;stroke-miterlimit:10;}
	.st1{fill:#39465D;stroke:#FFFFFF;stroke-width:0.5;stroke-miterlimit:10;}
</style>
<g id="Dark_Blue">
</g>
<g id="Logo__x2014__FIXED">
	<path class="st0" d="M11.7,13.3H2.9c-1.3,0-2.4-1.1-2.4-2.4v-8c0-1.3,1.1-2.4,2.4-2.4h8.7c1.3,0,2.4,1.1,2.4,2.4v7.9
		C14.1,12.2,13,13.3,11.7,13.3z"/>
	<g>
		<title>Layer 1</title>
		<g id="svg_1_1_" transform="rotate(-45, 326, 246)">
			<path id="path3192_1_" class="st1" d="M265-149.3l5.7,5.7l3.8-3.8l-5.7-5.7L265-149.3z"/>
			<path id="path3196_1_" class="st1" d="M270.5-143.8l-5.2-5.2l4.8-0.2l0.5,0.5L270.5-143.8L270.5-143.8L270.5-143.8z"/>
			<path id="path3198_1_" class="st1" d="M269.2-152.7l4.8,4.8l-4-0.2l-0.5-0.5L269.2-152.7z"/>
		</g>
	</g>
</g>
<g id="Annotations">
</g>
</svg>
