<?xml version="1.0" encoding="utf-8"?>
<!-- Generator: Adobe Illustrator 21.0.2, SVG Export Plug-In . SVG Version: 6.00 Build 0)  -->
<svg version="1.1" id="Layer_1" xmlns="http://www.w3.org/2000/svg" xmlns:xlink="http://www.w3.org/1999/xlink" x="0px" y="0px"
	 viewBox="0 0 50 50" style="enable-background:new 0 0 50 50;" xml:space="preserve">
<style type="text/css">
	.st0{fill:none;stroke:#FFFFFF;stroke-width:0.75;stroke-miterlimit:10;}
	.st1{fill:#FFFFFF;}
	.st2{fill:#39465D;}
	.st3{fill:#FFFFFF;stroke:#39465D;stroke-width:0.25;stroke-miterlimit:10;}
</style>
<g>
	<g>
		<path class="st0" d="M17.4,16.2c0,0.4,0.4,1.3,0.4,1.3s-0.9-0.4-1.2,0.5c-0.3,0.9-0.3,2.1,0.4,3.3c0.7,1.2,0.7,1.2,0.7,1.2
			s0.3,0.3,1,0.5c0,0,0.4,1.8,0.7,2.1l0.1,3c0,0,0,1.7-0.3,2.6c0,0-0.7,0.9-1.3,1.1c-0.6,0.3-2.3,0.6-2.9,1
			c-0.6,0.4-4.2,1.9-4.2,1.9s-1.9,0.7-3.3,0.9c-1.4,0.2-2.1,1-2.1,1s-2,1.9-2.9,5.6l-0.5,1.1h46c0,0-1.1-3.1-2.1-4.5
			c-1-1.5-2.2-1.9-2.2-1.9s-4.6-1.6-5.3-1.9c-0.7-0.4-4.8-2.2-5.3-2.5c-0.5-0.3-1.1-0.4-1.1-0.4s-1.4-0.9-1.4-1.1
			c0-0.2-0.5-2.8-0.4-5c0,0,1-1.4,1.3-3.1c0,0,0.7,0,1.1-0.8c0.4-0.8,0.4-1.4,0.8-2.1l-0.1-1.7c0,0-0.2-0.7-0.9-0.5
			c0,0,0.5-0.4,0.5-2c0-1.6,0-3.5-0.4-3.8c0,0-0.3-0.8-0.9-1.5c0,0,1.1-0.9,0.1-2.9s-2-2.2-2-2.2s-0.1-0.6-2.9-0.9
			c-2.8-0.3-5.8,0.9-7.7,2.1c0,0-1.8,2.5-2.6,3.2c-0.7,0.7-0.2,1.5-0.2,1.5s0.4,1.4,0.9,0.8c0,0,0.5,0.5,0.5,1.3
			C17.6,14.3,17.4,16.2,17.4,16.2z"/>
		<path class="st1" d="M20.6,17.2c0,0,0.2-0.7,1.4-0.8c1.2-0.1,1.4,0.9,1.4,0.9S22.5,18,20.6,17.2z"/>
		<path class="st1" d="M26.7,17.5c0,0,0.5-0.7,1.1-0.8c0.6-0.1,1.5,0.3,1.6,0.6S27.6,18.1,26.7,17.5z"/>
		<path class="st1" d="M19.2,17.5l1-1.2c0,0,0.9-0.5,1.8-0.3c0.8,0.2,1.6,0.5,1.7,0.4c0.2-0.1,0.2-0.1,0.2-0.1s0.2-0.3-0.2-0.6
			c-0.3-0.3-1-0.7-2.4-0.6s-1.7,0.7-1.9,0.9C19.2,16.4,19.2,17.5,19.2,17.5z"/>
		<path class="st1" d="M26.3,16.5c0,0,1-0.6,2.4-0.1c1.4,0.4,2.2,0.6,2.2,0.6s-0.2-1.5-1.8-1.6c-1.6-0.1-2.4,0.2-2.4,0.2L26.3,16.5z
			"/>
		<path class="st1" d="M23.4,21.2c0,0,0.2-0.3,0.5,0.1C24.3,21.6,23.2,21.7,23.4,21.2z"/>
		<path class="st1" d="M25.4,21.4c0,0,0.3-0.4,0.9-0.3C26.8,21.3,25.5,21.7,25.4,21.4z"/>
		<path class="st1" d="M22,23.4l1.1-0.1c0,0,0.7-0.5,1.7,0c0,0,0.6-0.6,2.1,0.1h0.9c0,0-0.4,0.7-2.1,0.7S22.4,23.7,22,23.4z"/>
		<path class="st2" d="M18.1,19.2c0,0-0.8,0.9-0.6,1.4c0.2,0.6,0.8,0.5,0.8,0.5L18.1,19.2z"/>
		<path class="st2" d="M31.9,19.4c0,0-0.2,0.7,0,1.4l-0.3,0.5c0,0,0.8-0.1,0.8-0.4c0-0.3,0.2-1-0.1-1.3
			C31.9,19.4,31.9,19.4,31.9,19.4z"/>
		<path class="st1" d="M17.5,32.2c0,0-0.3,1.7,0.5,3.1c0.9,1.4,2.7,2.4,2.7,2.4s1.6,1.8,6,1.2s5.7-3.9,5.7-3.9s1-2,0-2.6l1,0.6
			c0,0,0.7,2.2-1.7,4.6C29.4,40,24,40,23.4,39.8c-0.7-0.2-4.1-1.6-4.9-2.7c-0.8-1.1-1.5-3-1.6-3.5c-0.1-0.5-0.1-0.9,0-1.2
			C16.9,32.2,17.5,32.2,17.5,32.2z"/>
		<path class="st3" d="M19.6,25.2l1.5,1.6l0.4,0.4c0,0,1.6,1.6,3.4,1.5c1.8-0.1,1.9-0.1,3-0.5s2.2-2,2.2-2S28.5,27.8,28,28
			c-0.5,0.2-1.9,0.7-2.8,0.6c-0.9-0.1-2-0.2-2.3-0.5s-0.2,0.1-2.3-2S19.6,25.2,19.6,25.2z"/>
		<path class="st2" d="M22.4,23.4c0,0,4.4-0.1,4.6,0C27.2,23.5,22.7,23.6,22.4,23.4z"/>
		<path class="st1" d="M19.2,7.4c0,0,0.1-0.5,0.7-0.5C20.6,7.1,22,7.6,22,7.6l1.4,1.5C23.4,9.1,20.8,7.1,19.2,7.4z"/>
		<path class="st1" d="M28.3,9.3c0-0.1-0.2-3.9-0.8-4.1L28.3,9.3z"/>
		<path class="st1" d="M22.7,5.7c0,0,2.3,1.6,2.6,3.4S25,7.6,22.7,5.7z"/>
		<path class="st1" d="M20.4,10.5c0,0-2.4-0.3-2.6,1.1S17.9,11,20.4,10.5z"/>
		<path class="st1" d="M21.6,9.9c-3.7-0.6-3.7-0.6-3.7-0.6s2.8-0.6,3.2,0C21.6,9.9,21.6,9.9,21.6,9.9z"/>
		<path class="st1" d="M30,10.5c0,0-0.8-5.4-0.4-4.4C30,7,30.3,9.7,30,10.5z"/>
		<circle class="st2" cx="22" cy="17" r="0.5"/>
		<circle class="st2" cx="28.2" cy="17.3" r="0.5"/>
		<path class="st1" d="M25,5.3c0,0,2.7,1.1,2.3,4.2C27.3,9.4,26.5,5.8,25,5.3z"/>
	</g>
</g>
</svg>
