<?xml version="1.0" encoding="utf-8"?>
<!-- Generator: Adobe Illustrator 19.1.0, SVG Export Plug-In . SVG Version: 6.00 Build 0)  -->
<svg version="1.1" id="Layer_1" xmlns="http://www.w3.org/2000/svg" xmlns:xlink="http://www.w3.org/1999/xlink" x="0px" y="0px"
	 viewBox="0 0 200 40" style="enable-background:new 0 0 200 40;" xml:space="preserve">
<style type="text/css">
	.st0{fill:none;stroke:#474D51;stroke-miterlimit:10;}
	.st1{fill:none;stroke:#36465D;stroke-width:3;stroke-miterlimit:10;}
	.st2{fill:#474D52;stroke:#FFFFFF;stroke-miterlimit:10;}
	.st3{fill:#37465D;stroke:#FFFFFF;stroke-miterlimit:10;}
	.st4{fill:none;stroke:#474D53;stroke-miterlimit:10;}
	.st5{fill:none;stroke:#36465D;stroke-width:2;stroke-miterlimit:10;}
	.st6{stroke:#FFFFFF;stroke-width:0.25;stroke-miterlimit:10;}
	.st7{fill:#FFFFFF;stroke:#37465D;stroke-width:2;stroke-miterlimit:10;}
	.st8{fill:#FFFFFF;stroke:#FFFFFF;stroke-miterlimit:10;}
	.st9{fill:none;stroke:#474D53;stroke-width:0.5;stroke-miterlimit:10;}
	.st10{fill:#38465D;}
</style>
<ellipse class="st0" cx="25.3" cy="19.9" rx="10.6" ry="4.3"/>
<circle class="st1" cx="25.3" cy="20" r="2.4"/>
<path class="st2" d="M61.6,18.9c-4.4,0-7.9,3.5-7.9,7.9h15.8C69.5,22.5,66,18.9,61.6,18.9z"/>
<ellipse class="st3" cx="61.6" cy="15.2" rx="4.8" ry="4.8"/>
<line class="st4" x1="88.3" y1="25.5" x2="95.9" y2="25.5"/>
<line class="st4" x1="88.3" y1="16.8" x2="97.3" y2="16.8"/>
<line class="st4" x1="88.3" y1="19.9" x2="97.3" y2="19.9"/>
<line class="st4" x1="88.3" y1="22.6" x2="97.3" y2="22.6"/>
<ellipse transform="matrix(0.8523 -0.5231 0.5231 0.8523 4.1541 49.7205)" class="st5" cx="90.1" cy="17.5" rx="0.1" ry="8.4"/>
<line class="st6" x1="94.9" y1="22.9" x2="92.6" y2="24.3"/>
<line class="st7" x1="118.6" y1="20.1" x2="118.6" y2="26.6"/>
<rect x="82.9" y="8.1" transform="matrix(0.8708 -0.4916 0.4916 0.8708 6.3329 42.8697)" class="st8" width="3.6" height="2.6"/>
<line class="st7" x1="122.9" y1="17" x2="122.9" y2="26.6"/>
<line class="st7" x1="126.8" y1="13.6" x2="126.8" y2="26.6"/>
<line class="st9" x1="115.5" y1="12.9" x2="115.5" y2="26.9"/>
<line class="st9" x1="115.5" y1="26.6" x2="129.4" y2="26.6"/>
<line class="st4" x1="149.4" y1="25.5" x2="156.7" y2="25.5"/>
<line class="st4" x1="149.4" y1="16.8" x2="156.7" y2="16.8"/>
<line class="st4" x1="149.4" y1="19.9" x2="156.7" y2="19.9"/>
<line class="st4" x1="149.4" y1="22.6" x2="156.7" y2="22.6"/>
<polygon class="st10" points="149.2,16.4 149,16.3 148.2,17.1 147.8,16.7 147.6,16.9 148.2,17.4 148.2,17.4 148.2,17.4 "/>
<polygon class="st10" points="149.2,19.5 149,19.3 148.2,20.2 147.8,19.7 147.6,19.9 148.2,20.5 148.2,20.5 148.2,20.5 "/>
</svg>
