<?xml version="1.0" encoding="utf-8"?>
<!-- Generator: Adobe Illustrator 21.0.2, SVG Export Plug-In . SVG Version: 6.00 Build 0)  -->
<svg version="1.1" id="Layer_1" xmlns="http://www.w3.org/2000/svg" xmlns:xlink="http://www.w3.org/1999/xlink" x="0px" y="0px"
	 viewBox="0 0 14.5 13.8" style="enable-background:new 0 0 14.5 13.8;" xml:space="preserve">
<style type="text/css">
	.st0{fill:#39465D;stroke:#39465D;stroke-miterlimit:10;}
	.st1{fill:#FFFFFF;}
</style>
<g id="Dark_Blue">
</g>
<g id="Logo__x2014__FIXED">
	<path class="st0" d="M11.7,13.3H2.9c-1.3,0-2.4-1.1-2.4-2.4v-8c0-1.3,1.1-2.4,2.4-2.4h8.7c1.3,0,2.4,1.1,2.4,2.4v7.9
		C14.1,12.2,13,13.3,11.7,13.3z"/>
	<path class="st1" d="M5.7,10.3c3.1,0,4.9-2.6,4.9-4.9c0-0.1,0-0.2,0-0.2c0.4-0.3,0.6-0.5,0.9-0.9c-0.3,0.2-0.6,0.3-1,0.3
		c0.4-0.2,0.6-0.5,0.7-1C10.8,3.8,10.5,4,10.1,4C9.7,3.7,9.3,3.5,8.9,3.5c-1,0-1.7,0.8-1.7,1.7c0,0.2,0,0.3,0,0.4
		C5.8,5.5,4.6,4.9,3.7,3.8C3.5,4.1,3.4,4.3,3.4,4.7c0,0.6,0.3,1.1,0.8,1.4C3.9,6.1,3.7,6,3.4,5.9l0,0c0,0.8,0.6,1.5,1.3,1.7
		C4.6,7.7,4.5,7.7,4.4,7.7s-0.3,0-0.5,0c0.2,0.7,0.9,1.1,1.6,1.1C5,9.2,4.3,9.4,3.5,9.4c-0.2,0-0.3,0-0.4,0
		C3.8,10,4.7,10.3,5.7,10.3"/>
</g>
<g id="Annotations">
</g>
</svg>
