<?xml version="1.0" encoding="utf-8"?>
<!-- Generator: Adobe Illustrator 21.0.2, SVG Export Plug-In . SVG Version: 6.00 Build 0)  -->
<svg version="1.1" id="Layer_1" xmlns="http://www.w3.org/2000/svg" xmlns:xlink="http://www.w3.org/1999/xlink" x="0px" y="0px"
	 viewBox="0 0 50 50" style="enable-background:new 0 0 50 50;" xml:space="preserve">
<style type="text/css">
	.st0{fill:none;stroke:#FFFFFF;stroke-width:2;stroke-miterlimit:10;}
</style>
<path class="st0" d="M34.7,36.2H15.7c-2.8,0-5.2-2.3-5.2-5.2v-9.3c0-2.8,2.3-5.2,5.2-5.2h18.9c2.8,0,5.2,2.3,5.2,5.2v9.3
	C39.8,33.9,37.5,36.2,34.7,36.2z"/>
<path class="st0" d="M28.2,16.7h-6.3c-0.8,0-1.4-0.6-1.4-1.4v-1.1c0-0.8,0.6-1.4,1.4-1.4h6.3c0.8,0,1.4,0.6,1.4,1.4v1.1
	C29.6,16,28.9,16.7,28.2,16.7z"/>
</svg>
